<svg xmlns="http://www.w3.org/2000/svg" fill="none" data--h-bstatus="0OBSERVED" viewBox="0 0 35 50"><path d="m30.751 11.63-.034-.02-.079-.024a.187.187 0 0 0 .113.045Zm.497 3.573-.038.01.038-.01Zm-.482-3.578a.063.063 0 0 1-.014-.003.05.05 0 0 0 0 .01.027.027 0 0 0 .014-.007Z" fill="#0D0C22" data--h-bstatus="0OBSERVED"/><path d="M30.752 11.631h.005v-.003l-.006.003Zm.466 3.565.057-.033.022-.012.02-.02a.327.327 0 0 0-.1.065Zm-.367-3.487-.056-.054-.039-.02a.16.16 0 0 0 .095.074ZM16.715 46.37a.293.293 0 0 0-.114.089l.035-.023c.024-.022.058-.048.079-.066Zm8.209-1.624c0-.05-.025-.041-.02.14 0-.015.007-.03.01-.044.003-.032.005-.064.01-.096Zm-.852 1.624a.293.293 0 0 0-.114.089l.035-.023c.024-.022.058-.048.079-.066Zm-13.138.386a.24.24 0 0 0-.12-.056l.096.048.024.008Zm-1.3-1.253a.383.383 0 0 0-.048-.15c.019.048.034.098.047.148v.002Z" fill="#0D0C22" data--h-bstatus="0OBSERVED"/><path d="M18.372 23.098c-1.786.768-3.813 1.64-6.44 1.64a12.124 12.124 0 0 1-3.25-.45L10.5 43.044c.064.784.42 1.515.994 2.048a3.107 3.107 0 0 0 2.112.829s2.575.134 3.435.134c.925 0 3.698-.134 3.698-.134.782 0 1.536-.296 2.111-.829a3.14 3.14 0 0 0 .995-2.048l1.945-20.727c-.869-.298-1.747-.497-2.736-.497-1.71 0-3.089.592-4.681 1.278Z" fill="#FFF" data--h-bstatus="0OBSERVED"/><path d="m3.059 15.095.03.029.02.012a.313.313 0 0 0-.05-.041Z" fill="#0D0C22" data--h-bstatus="0OBSERVED"/><path d="m34.19 13.364-.274-1.388c-.245-1.245-.803-2.421-2.073-2.871-.408-.144-.87-.206-1.182-.504-.313-.298-.405-.76-.477-1.19-.134-.788-.26-1.576-.397-2.362-.118-.676-.212-1.436-.52-2.056-.401-.833-1.234-1.32-2.062-1.642-.424-.16-.857-.294-1.297-.404C23.84.4 21.664.197 19.536.082a53.194 53.194 0 0 0-7.664.128C9.975.383 7.977.593 6.175 1.253c-.659.241-1.338.531-1.839 1.043-.614.629-.815 1.602-.366 2.386.319.557.86.95 1.432 1.21.747.336 1.527.591 2.327.762 2.227.495 4.534.69 6.809.772 2.522.103 5.048.02 7.558-.248.62-.068 1.24-.15 1.858-.247.729-.112 1.196-1.07.982-1.737-.257-.798-.947-1.107-1.728-.987l-.344.052-.083.012a41.786 41.786 0 0 1-2.436.24 54.15 54.15 0 0 1-3.694.127c-1.21 0-2.422-.034-3.63-.114a45.943 45.943 0 0 1-2.396-.223l-.237-.03-.052-.008-.245-.036a25.728 25.728 0 0 1-1.5-.269.225.225 0 0 1-.176-.221.228.228 0 0 1 .176-.221h.01c.43-.093.863-.171 1.298-.24l.436-.067h.004c.272-.018.546-.067.817-.1a51.645 51.645 0 0 1 7.095-.251c1.15.033 2.3.101 3.444.218.246.026.49.053.735.083l.282.036.19.028c.554.083 1.105.184 1.653.302.812.178 1.855.235 2.216 1.13.115.284.167.6.23.897l.082.38a.497.497 0 0 1 .355 3.235.489.489 0 0 1-.188.068h-.006l-.117.016-.115.016a70.648 70.648 0 0 1-3.275.35 75.6 75.6 0 0 1-6.55.265 76.373 76.373 0 0 1-8.784-.514 91.065 91.065 0 0 1-.947-.12c.245.032-.178-.024-.264-.036-.2-.028-.401-.057-.602-.088-.673-.101-1.343-.226-2.015-.336-.813-.135-1.59-.067-2.325.336a3.392 3.392 0 0 0-1.4 1.46c-.317.659-.41 1.377-.553 2.085-.142.708-.362 1.47-.279 2.198.18 1.569 1.271 2.844 2.84 3.13a81.739 81.739 0 0 0 23.495.783.998.998 0 0 1 .816.286 1.01 1.01 0 0 1 .291.82l-.148 1.45a513872.414 513872.414 0 0 1-2.108 20.64c-.085.853-.097 1.734-.258 2.577-.255 1.327-1.147 2.142-2.45 2.44a16.998 16.998 0 0 1-3.637.427c-1.357.008-2.714-.053-4.07-.045-1.45.008-3.224-.127-4.342-1.211-.983-.953-1.119-2.444-1.252-3.733a2894.92 2894.92 0 0 1-.53-5.121l-.984-9.49-.636-6.141-.031-.304c-.077-.733-.592-1.45-1.405-1.413-.695.03-1.486.625-1.404 1.413l.471 4.552.975 9.417.832 8.026c.053.513.103 1.027.16 1.54.305 2.8 2.432 4.31 5.066 4.735 1.538.249 3.114.3 4.675.325 2.001.033 4.022.11 5.99-.255 2.918-.538 5.106-2.497 5.418-5.535l.268-2.632.888-8.707.967-9.485.444-4.347a1.012 1.012 0 0 1 .807-.887c.835-.163 1.632-.442 2.225-1.08.944-1.017 1.132-2.342.799-3.678Zm-31.375.938c.013-.006-.01.103-.02.154-.002-.077.002-.146.02-.154Zm.081.63c.007-.005.027.021.048.054-.032-.03-.052-.052-.048-.055Zm.08.105c.029.049.044.08 0 0Zm.16.13h.004c0 .005.007.01.01.014a.103.103 0 0 0-.015-.014Zm27.992-.195c-.3.287-.751.42-1.198.487-5.002.746-10.078 1.124-15.136.957-3.62-.124-7.201-.528-10.785-1.037-.35-.05-.731-.115-.973-.375-.455-.491-.231-1.48-.113-2.073.108-.544.316-1.268.959-1.346 1.003-.118 2.168.308 3.16.46 1.195.183 2.395.33 3.599.44 5.138.47 10.362.397 15.477-.291a64.16 64.16 0 0 0 2.787-.44c.825-.148 1.74-.428 2.237.431.342.586.388 1.369.335 2.03a1.138 1.138 0 0 1-.35.757Z" fill="#0D0C22" data--h-bstatus="0OBSERVED"/></svg>